<svg xmlns="http://www.w3.org/2000/svg" xmlns:xlink="http://www.w3.org/1999/xlink" width="1056" zoomAndPan="magnify" viewBox="0 0 792 611.999999" height="816" preserveAspectRatio="xMidYMid meet" version="1.0"><defs><clipPath id="0a9385a78c"><path d="M 132.472656 498.96875 L 171.605469 498.96875 L 171.605469 583.632812 L 132.472656 583.632812 Z M 132.472656 498.96875 " clip-rule="nonzero"/></clipPath><clipPath id="537ba19dbb"><path d="M 132.472656 498.972656 L 171.472656 498.972656 L 171.472656 583.621094 L 132.472656 583.621094 Z M 132.472656 498.972656 " clip-rule="nonzero"/></clipPath><clipPath id="aacacdd889"><path d="M 330.660156 498.96875 L 369.792969 498.96875 L 369.792969 583.632812 L 330.660156 583.632812 Z M 330.660156 498.96875 " clip-rule="nonzero"/></clipPath><clipPath id="963971de1d"><path d="M 330.660156 498.972656 L 369.660156 498.972656 L 369.660156 583.621094 L 330.660156 583.621094 Z M 330.660156 498.972656 " clip-rule="nonzero"/></clipPath><clipPath id="fe000fc773"><path d="M 61.199219 498.96875 L 447 498.96875 L 447 532.851562 L 61.199219 532.851562 Z M 61.199219 498.96875 " clip-rule="nonzero"/></clipPath><clipPath id="8234b8d70c"><path d="M 61.210938 498.96875 L 446.699219 498.96875 L 446.699219 532.71875 L 61.210938 532.71875 Z M 61.210938 498.96875 " clip-rule="nonzero"/></clipPath><clipPath id="fbaff692f3"><path d="M 98.589844 16.632812 L 132.472656 16.632812 L 132.472656 532.847656 L 98.589844 532.847656 Z M 98.589844 16.632812 " clip-rule="nonzero"/></clipPath><clipPath id="d735bd01e8"><path d="M 98.589844 16.847656 L 132.339844 16.847656 L 132.339844 532.828125 L 98.589844 532.828125 Z M 98.589844 16.847656 " clip-rule="nonzero"/></clipPath><clipPath id="e6e8235520"><path d="M 61.199219 498.96875 L 100.335938 498.96875 L 100.335938 612 L 61.199219 612 Z M 61.199219 498.96875 " clip-rule="nonzero"/></clipPath><clipPath id="bbbc094fde"><path d="M 61.199219 498.976562 L 100.199219 498.976562 L 100.199219 611.988281 L 61.199219 611.988281 Z M 61.199219 498.976562 " clip-rule="nonzero"/></clipPath><clipPath id="bda5dd1a64"><path d="M 407.917969 498.96875 L 447.050781 498.96875 L 447.050781 612 L 407.917969 612 Z M 407.917969 498.96875 " clip-rule="nonzero"/></clipPath><clipPath id="4e6a11ce67"><path d="M 407.917969 498.976562 L 446.917969 498.976562 L 446.917969 611.988281 L 407.917969 611.988281 Z M 407.917969 498.976562 " clip-rule="nonzero"/></clipPath><clipPath id="dc53f00390"><path d="M 61.1875 44.257812 L 447.039062 44.257812 L 447.039062 78.136719 L 61.1875 78.136719 Z M 61.1875 44.257812 " clip-rule="nonzero"/></clipPath><clipPath id="530bae7eb9"><path d="M 61.539062 44.386719 L 447.03125 44.386719 L 447.03125 78.136719 L 61.539062 78.136719 Z M 61.539062 44.386719 " clip-rule="nonzero"/></clipPath><clipPath id="deb3339ee6"><path d="M 108 52 L 207 52 L 207 152 L 108 152 Z M 108 52 " clip-rule="nonzero"/></clipPath><clipPath id="dc0b39b86e"><path d="M 206.976562 76.753906 L 132.296875 151.433594 L 108.335938 127.476562 L 183.019531 52.796875 Z M 206.976562 76.753906 " clip-rule="nonzero"/></clipPath><clipPath id="220a57b384"><path d="M 206.976562 76.753906 L 132.355469 151.371094 L 108.398438 127.414062 L 183.019531 52.796875 Z M 206.976562 76.753906 " clip-rule="nonzero"/></clipPath><clipPath id="84d14348ae"><path d="M 108 52 L 207 52 L 207 152 L 108 152 Z M 108 52 " clip-rule="nonzero"/></clipPath><clipPath id="f624a4739d"><path d="M 206.976562 76.753906 L 132.199219 151.53125 L 108.335938 127.664062 L 183.113281 52.886719 Z M 206.976562 76.753906 " clip-rule="nonzero"/></clipPath><clipPath id="c4e40c5aa9"><path d="M 206.972656 76.753906 L 131.925781 151.804688 L 107.585938 127.464844 L 182.632812 52.414062 Z M 206.972656 76.753906 " clip-rule="nonzero"/></clipPath><clipPath id="9ca8812cf7"><path d="M 206.972656 76.753906 L 132.359375 151.371094 L 108.402344 127.414062 L 183.015625 52.800781 Z M 206.972656 76.753906 " clip-rule="nonzero"/></clipPath><clipPath id="4aa05b9049"><path d="M 74 507 L 123 507 L 123 556 L 74 556 Z M 74 507 " clip-rule="nonzero"/></clipPath><clipPath id="403bf4d5c3"><path d="M 122.445312 530.34375 L 99.988281 555.484375 L 74.648438 532.851562 L 97.105469 507.710938 Z M 122.445312 530.34375 " clip-rule="nonzero"/></clipPath><clipPath id="5dacd457c7"><path d="M 122.445312 530.34375 L 99.988281 555.484375 L 74.71875 532.914062 L 97.175781 507.773438 Z M 122.445312 530.34375 " clip-rule="nonzero"/></clipPath><clipPath id="333bec92f0"><path d="M 74 507 L 123 507 L 123 556 L 74 556 Z M 74 507 " clip-rule="nonzero"/></clipPath><clipPath id="3f125b5129"><path d="M 122.445312 530.34375 L 99.960938 555.515625 L 74.792969 533.03125 L 97.273438 507.859375 Z M 122.445312 530.34375 " clip-rule="nonzero"/></clipPath><clipPath id="acd86da029"><path d="M 122.445312 530.339844 L 99.515625 556.007812 L 73.847656 533.082031 L 96.777344 507.414062 Z M 122.445312 530.339844 " clip-rule="nonzero"/></clipPath><clipPath id="34761807a5"><path d="M 122.445312 530.339844 L 99.992188 555.476562 L 74.730469 532.914062 L 97.179688 507.777344 Z M 122.445312 530.339844 " clip-rule="nonzero"/></clipPath></defs><rect x="-79.2" width="950.4" fill="#ffffff" y="-61.2" height="734.399999" fill-opacity="1"/><rect x="-79.2" width="950.4" fill="#ffffff" y="-61.2" height="734.399999" fill-opacity="1"/><g clip-path="url(#0a9385a78c)"><path fill="#473c38" d="M 132.472656 498.96875 L 171.605469 498.96875 L 171.605469 583.660156 L 132.472656 583.660156 Z M 132.472656 498.96875 " fill-opacity="1" fill-rule="nonzero"/></g><g clip-path="url(#537ba19dbb)"><path stroke-linecap="butt" transform="matrix(0.75, 0, 0, 0.75, 132.472437, 498.972646)" fill="none" stroke-linejoin="miter" d="M 0.000291919 0.0000131411 L 52.172169 0.0000131411 L 52.172169 112.864601 L 0.000291919 112.864601 Z M 0.000291919 0.0000131411 " stroke="#000000" stroke-width="10" stroke-opacity="1" stroke-miterlimit="4"/></g><g clip-path="url(#aacacdd889)"><path fill="#473c38" d="M 330.660156 498.96875 L 369.792969 498.96875 L 369.792969 583.660156 L 330.660156 583.660156 Z M 330.660156 498.96875 " fill-opacity="1" fill-rule="nonzero"/></g><g clip-path="url(#963971de1d)"><path stroke-linecap="butt" transform="matrix(0.75, 0, 0, 0.75, 330.658376, 498.972646)" fill="none" stroke-linejoin="miter" d="M 0.00237376 0.0000131411 L 52.174251 0.0000131411 L 52.174251 112.864601 L 0.00237376 112.864601 Z M 0.00237376 0.0000131411 " stroke="#000000" stroke-width="10" stroke-opacity="1" stroke-miterlimit="4"/></g><g clip-path="url(#fe000fc773)"><path fill="#473c38" d="M 61.199219 498.96875 L 447 498.96875 L 447 532.851562 L 61.199219 532.851562 Z M 61.199219 498.96875 " fill-opacity="1" fill-rule="nonzero"/></g><g clip-path="url(#8234b8d70c)"><path stroke-linecap="butt" transform="matrix(0.75, 0, 0, 0.75, 61.209588, 498.969718)" fill="none" stroke-linejoin="miter" d="M 0.0017988 -0.00129119 L 514.428904 -0.00129119 L 514.428904 45.170586 L 0.0017988 45.170586 Z M 0.0017988 -0.00129119 " stroke="#000000" stroke-width="10" stroke-opacity="1" stroke-miterlimit="4"/></g><g clip-path="url(#fbaff692f3)"><path fill="#473c38" d="M 98.589844 532.847656 L 98.589844 16.683594 L 132.472656 16.683594 L 132.472656 532.847656 Z M 98.589844 532.847656 " fill-opacity="1" fill-rule="nonzero"/></g><g clip-path="url(#d735bd01e8)"><path stroke-linecap="butt" transform="matrix(0, -0.75, 0.75, 0, 98.589695, 532.829517)" fill="none" stroke-linejoin="miter" d="M 0.0018559 0.000198629 L 688.231052 0.000198629 L 688.231052 45.172076 L 0.0018559 45.172076 Z M 0.0018559 0.000198629 " stroke="#000000" stroke-width="10" stroke-opacity="1" stroke-miterlimit="4"/></g><g clip-path="url(#e6e8235520)"><path fill="#473c38" d="M 61.199219 498.96875 L 100.335938 498.96875 L 100.335938 611.941406 L 61.199219 611.941406 Z M 61.199219 498.96875 " fill-opacity="1" fill-rule="nonzero"/></g><g clip-path="url(#bbbc094fde)"><path stroke-linecap="butt" transform="matrix(0.75, 0, 0, 0.75, 61.199998, 498.97687)" fill="none" stroke-linejoin="miter" d="M -0.001039 -0.000410525 L 52.170838 -0.000410525 L 52.170838 150.681888 L -0.001039 150.681888 Z M -0.001039 -0.000410525 " stroke="#000000" stroke-width="10" stroke-opacity="1" stroke-miterlimit="4"/></g><g clip-path="url(#bda5dd1a64)"><path fill="#473c38" d="M 407.917969 498.96875 L 447.050781 498.96875 L 447.050781 611.941406 L 407.917969 611.941406 Z M 407.917969 498.96875 " fill-opacity="1" fill-rule="nonzero"/></g><g clip-path="url(#4e6a11ce67)"><path stroke-linecap="butt" transform="matrix(0.75, 0, 0, 0.75, 407.916319, 498.97687)" fill="none" stroke-linejoin="miter" d="M 0.00219969 -0.000410525 L 52.174077 -0.000410525 L 52.174077 150.681888 L 0.00219969 150.681888 Z M 0.00219969 -0.000410525 " stroke="#000000" stroke-width="10" stroke-opacity="1" stroke-miterlimit="4"/></g><g clip-path="url(#dc53f00390)"><path fill="#473c38" d="M 447.039062 78.136719 L 61.238281 78.136719 L 61.238281 44.257812 L 447.039062 44.257812 Z M 447.039062 78.136719 " fill-opacity="1" fill-rule="nonzero"/></g><g clip-path="url(#530bae7eb9)"><path stroke-linecap="butt" transform="matrix(-0.75, 0, 0, -0.75, 447.030221, 78.138129)" fill="none" stroke-linejoin="miter" d="M -0.00137161 0.00188089 L 514.425734 0.00188089 L 514.425734 45.173758 L -0.00137161 45.173758 Z M -0.00137161 0.00188089 " stroke="#000000" stroke-width="10" stroke-opacity="1" stroke-miterlimit="4"/></g><g clip-path="url(#deb3339ee6)"><g clip-path="url(#dc0b39b86e)"><g clip-path="url(#220a57b384)"><path fill="#473c38" d="M 206.976562 76.753906 L 132.386719 151.339844 L 108.429688 127.382812 L 183.019531 52.796875 Z M 206.976562 76.753906 " fill-opacity="1" fill-rule="nonzero"/></g></g></g><g clip-path="url(#84d14348ae)"><g clip-path="url(#f624a4739d)"><g clip-path="url(#c4e40c5aa9)"><g clip-path="url(#9ca8812cf7)"><path stroke-linecap="butt" transform="matrix(-0.53033, 0.53033, -0.53033, -0.53033, 206.973565, 76.755785)" fill="none" stroke-linejoin="miter" d="M -0.000913951 0.00262804 L 140.694927 -0.0010548 L 140.694927 45.172758 L 0.0027689 45.172758 Z M -0.000913951 0.00262804 " stroke="#000000" stroke-width="10" stroke-opacity="1" stroke-miterlimit="4"/></g></g></g></g><g clip-path="url(#4aa05b9049)"><g clip-path="url(#403bf4d5c3)"><g clip-path="url(#5dacd457c7)"><path fill="#473c38" d="M 122.445312 530.34375 L 99.988281 555.484375 L 74.746094 532.941406 L 97.207031 507.796875 Z M 122.445312 530.34375 " fill-opacity="1" fill-rule="nonzero"/></g></g></g><g clip-path="url(#333bec92f0)"><g clip-path="url(#3f125b5129)"><g clip-path="url(#acd86da029)"><g clip-path="url(#34761807a5)"><path stroke-linecap="butt" transform="matrix(-0.499623, 0.559354, -0.559354, -0.499623, 122.443582, 530.341341)" fill="none" stroke-linejoin="miter" d="M -0.0030262 -0.000391155 L 44.936393 0.000217084 L 44.938049 45.161086 L 0.0020994 45.164362 Z M -0.0030262 -0.000391155 " stroke="#000000" stroke-width="10" stroke-opacity="1" stroke-miterlimit="4"/></g></g></g></g></svg>